<svg xmlns="http://www.w3.org/2000/svg" viewBox="4.5 2.5 7 10" fill="white">
  <path d="M5.00007 7.99854C5.00007 7.91484 5.03864 7.82934 5.11492 7.74205L8.97026 3.16929C9.06798 3.05319 9.17255 2.99739 9.28483 3.00009C9.39026 3.00009 9.48882 3.05139 9.54539 3.13509C9.61054 3.21969 9.61311 3.33308 9.55397 3.47618L8.29399 6.72328H10.6905C10.7814 6.72328 10.8551 6.74938 10.9117 6.80338C10.9699 6.85467 11.0016 6.92667 10.9999 7.00137C10.9999 7.08507 10.9631 7.17237 10.8894 7.26236L7.03402 11.8315C6.93717 11.9467 6.83003 12.0025 6.71603 11.9998C6.6106 12.0034 6.51032 11.9539 6.45461 11.8693C6.39289 11.782 6.38946 11.6668 6.44603 11.5237L7.71029 8.27663H5.31377C5.23063 8.27933 5.14921 8.25053 5.08835 8.19653C5.03007 8.14524 4.99835 8.07414 5.00007 7.99854Z"/>
</svg>
